<?xml version="1.0" standalone="no"?><!DOCTYPE svg PUBLIC "-//W3C//DTD SVG 1.1//EN" "http://www.w3.org/Graphics/SVG/1.1/DTD/svg11.dtd"><svg t="1722333758177" class="icon" viewBox="0 0 1026 1024" version="1.1" xmlns="http://www.w3.org/2000/svg" p-id="4270" xmlns:xlink="http://www.w3.org/1999/xlink" width="200.390625" height="200"><path d="M151.04 150.016c-199.68 199.68-199.68 524.288 0 723.968s524.288 199.68 723.968 0 199.68-524.288 0-723.968-524.288-199.68-723.968 0z m684.032 684.032c-177.664 177.664-465.92 177.664-643.584 0s-177.664-465.92 0-643.584 465.92-177.664 643.584 0 177.664 465.408 0 643.584z" fill="#ffffff" p-id="4271"></path><path d="M681.984 294.912l-168.96 168.96-168.96-168.96c-6.656-6.656-15.872-10.24-24.064-9.728-8.704 0-17.92 3.072-24.064 9.728-13.312 13.312-13.312 35.328 0 48.64l168.96 168.96-168.96 168.96c-6.656 6.656-9.728 15.36-9.728 24.064s3.072 17.92 9.728 24.064c13.312 13.312 35.328 13.312 48.64 0l168.96-168.96 168.96 168.96c6.656 6.656 15.872 10.24 24.064 9.728 8.704 0 17.92-3.072 24.064-9.728 13.312-13.312 13.312-35.328 0-48.64l-168.96-168.96 168.96-168.96c6.656-6.656 10.24-15.872 9.728-24.064 0-8.704-3.072-17.92-9.728-24.064-13.824-13.312-35.328-13.312-48.64 0z" fill="#ffffff" p-id="4272"></path></svg>